<svg width="11" height="19" viewBox="0 0 11 19" fill="none" xmlns="http://www.w3.org/2000/svg">
<path d="M0.938755 2.07456L8.55125 9.88393L0.938755 17.6933C0.80247 17.8328 0.726172 18.0201 0.726172 18.2152C0.726172 18.4102 0.80247 18.5975 0.938755 18.7371C1.00495 18.8046 1.08396 18.8583 1.17115 18.8949C1.25835 18.9316 1.35198 18.9504 1.44657 18.9504C1.54115 18.9504 1.63478 18.9316 1.72198 18.8949C1.80918 18.8583 1.88818 18.8046 1.95438 18.7371L10.0544 10.4292C10.1966 10.2833 10.2762 10.0877 10.2762 9.88393C10.2762 9.68019 10.1966 9.48451 10.0544 9.33862L1.95594 1.0308C1.8897 0.962768 1.8105 0.908692 1.72301 0.871768C1.63552 0.834844 1.54153 0.815821 1.44657 0.815821C1.35161 0.815821 1.25761 0.834844 1.17012 0.871768C1.08264 0.908692 1.00344 0.962768 0.937192 1.0308C0.800907 1.17033 0.724609 1.35764 0.724609 1.55268C0.724609 1.74772 0.800907 1.93503 0.937192 2.07456L0.938755 2.07456Z" fill="white"/>
</svg>
