<svg width="52" height="52" viewBox="0 0 52 52" fill="none" xmlns="http://www.w3.org/2000/svg">
<circle cx="26" cy="26" r="22" fill="url(#paint0_linear_76_13602)"/>
<path d="M15.3442 38.3607V13.6394H27.1682C29.4605 13.6394 31.437 14.0161 33.0977 14.7695C34.7819 15.5229 36.08 16.606 36.9923 18.0186C37.9045 19.4077 38.3606 21.0558 38.3606 22.9629C38.3606 24.8699 37.9045 26.518 36.9923 27.9071C36.08 29.2962 34.7819 30.3793 33.0977 31.1562C31.437 31.9096 29.4605 32.2863 27.1682 32.2863H19.9405L23.6245 28.7194V38.3607H15.3442ZM23.6245 29.6376L19.9405 25.8588H26.6419C27.7881 25.8588 28.6301 25.5998 29.1681 25.0818C29.7295 24.5639 30.0102 23.8575 30.0102 22.9629C30.0102 22.0682 29.7295 21.3619 29.1681 20.8439C28.6301 20.3259 27.7881 20.0669 26.6419 20.0669H19.9405L23.6245 16.2881V29.6376Z" fill="white"/>
<defs>
<linearGradient id="paint0_linear_76_13602" x1="41.95" y1="7.575" x2="10.875" y2="46.35" gradientUnits="userSpaceOnUse">
<stop stop-color="#00F0FF"/>
<stop offset="1" stop-color="#FF0ECA"/>
</linearGradient>
</defs>
</svg>
