<svg width="25" height="25" viewBox="0 0 25 25" fill="none" xmlns="http://www.w3.org/2000/svg">
<path d="M20.8657 21.6563C21.3449 22.1354 22.0845 21.3958 21.6053 20.9271L17.6991 17.0104C19.0693 15.4943 19.8267 13.5227 19.8241 11.4792C19.8241 6.90625 16.1053 3.1875 11.5324 3.1875C6.95947 3.1875 3.24072 6.90625 3.24072 11.4792C3.24072 16.0521 6.95947 19.7708 11.5324 19.7708C13.5949 19.7708 15.5011 19.0104 16.9595 17.75L20.8657 21.6563ZM4.28135 11.4792C4.28135 7.47917 7.54176 4.22917 11.5313 4.22917C15.5313 4.22917 18.7813 7.47917 18.7813 11.4792C18.7813 15.4792 15.5313 18.7292 11.5313 18.7292C7.54176 18.7292 4.28135 15.4792 4.28135 11.4792Z" fill="white"/>
</svg>
