<svg width="20" height="20" viewBox="0 0 20 20" fill="none" xmlns="http://www.w3.org/2000/svg">
<path d="M10 20C15.5228 20 20 15.5228 20 10C20 4.47715 15.5228 0 10 0C4.47715 0 0 4.47715 0 10C0 15.5228 4.47715 20 10 20Z" fill="black"/>
<path d="M3.50678 10.4259C4.68137 9.78405 5.99253 9.24831 7.21761 8.70984C9.32523 7.82786 11.4412 6.96118 13.5786 6.1543C13.9944 6.01683 14.7416 5.8824 14.8149 6.49378C14.7747 7.35922 14.6097 8.2196 14.4965 9.07997C14.2092 10.972 13.8771 12.8576 13.5533 14.7434C13.4417 15.3716 12.6485 15.6967 12.141 15.2947C10.9214 14.4774 9.69238 13.668 8.48832 12.8317C8.0939 12.4341 8.45965 11.8631 8.8119 11.5792C9.81643 10.597 10.8818 9.76256 11.8338 8.72965C12.0906 8.11441 11.3318 8.63291 11.0815 8.7918C9.70631 9.732 8.36476 10.7296 6.91486 11.5559C6.17425 11.9604 5.31106 11.6147 4.57078 11.3891C3.90705 11.1164 2.93441 10.8417 3.50672 10.426L3.50678 10.4259Z" fill="white"/>
</svg>
